<svg xmlns="http://www.w3.org/2000/svg" width="386" height="148" viewBox="0 0 386 148" fill="none">
    <path d="M2.98023e-08 80.4L56 3.99999H102.4V83H118.8V108H102.4V144H71.8V108H2.98023e-08V80.4ZM28.8 83H71.8V28.8H68.8L28.8 80V83ZM191.398 147.2C157.198 147.2 135.398 125.4 135.398 82.4V65.6C135.398 22.6 157.198 0.799996 191.398 0.799996H194.798C228.798 0.799996 250.598 22.6 250.598 65.6V82.4C250.598 125.4 228.798 147.2 194.798 147.2H191.398ZM166.998 78H169.998L217.398 42.8C214.398 29.6 206.798 24.8 194.598 24.8H191.398C175.398 24.8 166.998 33.2 166.998 58.8V78ZM168.398 105C171.598 118.4 179.398 123.2 191.398 123.2H194.598C210.798 123.2 218.998 114.8 218.998 89.2V69.6H215.998L168.398 105ZM266.602 80.4L322.602 3.99999H369.002V83H385.402V108H369.002V144H338.402V108H266.602V80.4ZM295.402 83H338.402V28.8H335.402L295.402 80V83Z" fill="#3C3C3C"/>
</svg>