<svg xmlns="http://www.w3.org/2000/svg" width="24" height="24" viewBox="0 0 24 24" fill="none">
    <path d="M19.54 6.80008C19.2962 9.36758 18.24 15.6076 17.7037 18.4838C17.4762 19.7026 17.0212 20.1088 16.5987 20.1576C15.6562 20.2388 14.9412 19.5401 14.0312 18.9388C12.6012 17.9963 11.7887 17.4113 10.4075 16.5013C8.79872 15.4451 9.83871 14.8601 10.765 13.9176C11.0087 13.6738 15.1687 9.88758 15.25 9.54633C15.2613 9.49464 15.2597 9.44098 15.2456 9.39001C15.2314 9.33904 15.205 9.29229 15.1687 9.25383C15.0712 9.17258 14.9412 9.20508 14.8275 9.22133C14.6812 9.25383 12.4062 10.7651 7.96996 13.7551C7.31997 14.1938 6.73496 14.4213 6.21496 14.4051C5.62996 14.3888 4.52496 14.0801 3.69621 13.8038C2.67246 13.4788 1.87621 13.3001 1.94121 12.7313C1.97371 12.4388 2.37996 12.1463 3.14371 11.8376C7.88871 9.77383 11.0412 8.40883 12.6175 7.75883C17.135 5.87383 18.0612 5.54883 18.6787 5.54883C18.8087 5.54883 19.1175 5.58133 19.3125 5.74383C19.475 5.87383 19.5237 6.05258 19.54 6.18258C19.5237 6.28008 19.5562 6.57258 19.54 6.80008Z" fill="white"/>
</svg>